Coordinates
version=1
nRows=14
nColumns=46
inDegrees=yes

Units are S.I. units (second, meters, Newtons, ...)
Angles are in degrees.

endheader
time	pelvis_tilt	pelvis_list	pelvis_rotation	pelvis_tx	pelvis_ty	pelvis_tz	bb_angle	bb_tx	bb_ty	bb_tz	hip_flexion_r	hip_adduction_r	hip_rotation_r	knee_angle_r	knee_angle_r_beta	ankle_angle_r	subtalar_angle_r	mtp_angle_r	crank_angle_r	hip_flexion_l	hip_adduction_l	hip_rotation_l	knee_angle_l	knee_angle_l_beta	ankle_angle_l	subtalar_angle_l	mtp_angle_l	crank_angle_l	lumbar_extension	lumbar_bending	lumbar_rotation	arm_flex_r	arm_add_r	arm_rot_r	elbow_flex_r	pro_sup_r	wrist_flex_r	wrist_dev_r	arm_flex_l	arm_add_l	arm_rot_l	elbow_flex_l	pro_sup_l	wrist_flex_l	wrist_dev_l
      2.50000000	    -14.92110833	     -3.23961008	     -8.80134092	      0.18923553	      1.07093149	     -0.31171991	      0.00000000	      0.50000000	      0.00000000	      0.25000000	     80.87343586	      2.34484202	      4.04900524	    113.37527086	      1.97877177	      8.58153222	     -3.46298682	      0.00000000	      0.00000000	     45.50226794	    -14.91032281	     -6.09074256	     31.29795440	      0.54625235	    -29.87374073	      2.04429576	      0.00000000	      0.00000000	    -64.52807561	     -8.56445351	      8.73498391	     89.61441234	    -15.41147531	     28.35648906	     47.15283608	     33.57635712	      0.00000000	      0.00000000	     87.04000326	      1.11579259	     10.23755897	     51.24532111	     39.45852840	      0.00000000	      0.00000000
      2.50500000	    -15.02665670	     -3.45126487	     -8.97749877	      0.18925243	      1.07094585	     -0.31212527	      0.00000000	      0.50000000	      0.00000000	      0.25000000	     81.64515841	      2.53400872	      3.83422070	    113.72611604	      1.98489517	      8.75035969	     -3.29213092	      0.00000000	      0.00000000	     45.00769461	    -15.13643458	     -6.27487824	     30.71098325	      0.53600777	    -30.75903678	      2.10688003	      0.00000000	      0.00000000	    -64.45088971	     -8.36993930	      8.98309995	     89.62144955	    -15.25500476	     28.35456294	     47.27864421	     33.53136728	      0.00000000	      0.00000000	     87.07481379	      0.84051987	     10.39503841	     51.15775676	     39.45961566	      0.00000000	      0.00000000
      2.51000000	    -15.16475771	     -3.64396408	     -9.13975448	      0.18928025	      1.07095733	     -0.31247839	      0.00000000	      0.50000000	      0.00000000	      0.25000000	     82.42665073	      2.73709796	      3.65025713	    114.00930593	      1.98983777	      9.13820843	     -3.18717433	      0.00000000	      0.00000000	     44.56713907	    -15.34044535	     -6.45542870	     30.13709566	      0.52599155	    -31.77427756	      2.12523140	      0.00000000	      0.00000000	    -64.36028953	     -8.25181605	      9.11307852	     89.62796922	    -15.07424788	     28.32110273	     47.44228109	     33.47150746	      0.00000000	      0.00000000	     87.07233779	      0.48771969	     10.63057350	     51.03104471	     39.46270102	      0.00000000	      0.00000000
      2.51500000	    -15.27459222	     -3.82048654	     -9.32382323	      0.18927051	      1.07089637	     -0.31282496	      0.00000000	      0.50000000	      0.00000000	      0.25000000	     83.19011332	      2.97836265	      3.51104196	    114.27271513	      1.99443512	      9.46623944	     -3.03716191	      0.00000000	      0.00000000	     44.13542541	    -15.53566934	     -6.60519933	     29.68174922	      0.51804425	    -32.65805298	      2.05374445	      0.00000000	      0.00000000	    -64.28230928	     -8.11928685	      9.23899735	     89.62443568	    -14.84495218	     28.26270102	     47.62007828	     33.39552909	      0.00000000	      0.00000000	     87.10678841	      0.07936041	     10.95445024	     50.89980151	     39.47388533	      0.00000000	      0.00000000
      2.52000000	    -15.37229238	     -3.94877455	     -9.48746905	      0.18920345	      1.07072382	     -0.31326529	      0.00000000	      0.50000000	      0.00000000	      0.25000000	     83.94631571	      3.15156443	      3.38980559	    114.50675151	      1.99851983	      9.79283967	     -2.96556347	      0.00000000	      0.00000000	     43.76285493	    -15.68131545	     -6.77816226	     29.36595815	      0.51253266	    -33.48424660	      2.05403269	      0.00000000	      0.00000000	    -64.21287602	     -7.97895474	      9.34271060	     89.63395552	    -14.62888889	     28.17895102	     47.79811977	     33.31756013	      0.00000000	      0.00000000	     87.15077089	     -0.34701595	     11.29401694	     50.79185692	     39.49043885	      0.00000000	      0.00000000
      2.52500000	    -15.39671465	     -4.01611126	     -9.65960953	      0.18913317	      1.07062881	     -0.31362728	      0.00000000	      0.50000000	      0.00000000	      0.25000000	     84.62732786	      3.34646845	      3.35627576	    114.70137305	      2.00191662	     10.09637749	     -2.83484894	      0.00000000	      0.00000000	     43.33000578	    -15.76138023	     -6.93939396	     29.14137157	      0.50861288	    -34.13615818	      1.79838970	      0.00000000	      0.00000000	    -64.22902711	     -7.85479890	      9.21054636	     89.63468306	    -13.89687483	     27.43157542	     48.14962590	     32.38857694	      0.00000000	      0.00000000	     87.30018157	     -1.97813486	     14.20628304	     50.88569507	     39.78733436	      0.00000000	      0.00000000
      2.53000000	    -15.50408830	     -4.26591302	     -9.82811656	      0.18898295	      1.07031074	     -0.31398773	      0.00000000	      0.50000000	      0.00000000	      0.25000000	     85.34152536	      3.59696139	      3.08862680	    114.80453303	      2.00371710	     10.35515320	     -2.88470937	      0.00000000	      0.00000000	     43.13267284	    -16.04427336	     -7.02008907	     29.17019374	      0.50911592	    -34.60259408	      1.69822580	      0.00000000	      0.00000000	    -64.12617877	     -7.64668288	      9.46969909	     89.64070948	    -13.69675802	     27.29571839	     48.08168963	     32.84753842	      0.00000000	      0.00000000	     87.32924445	     -2.43952736	     14.94084642	     50.64770218	     40.08293287	      0.00000000	      0.00000000
      2.53500000	    -15.54763131	     -4.44951088	     -9.96428626	      0.18885459	      1.06997994	     -0.31442291	      0.00000000	      0.50000000	      0.00000000	      0.25000000	     86.02306080	      3.72351954	      2.88283942	    114.89603652	      2.00531413	     10.60858704	     -2.80560307	      0.00000000	      0.00000000	     42.91422915	    -16.23347351	     -7.06153060	     29.27634920	      0.51096869	    -35.10018967	      1.50022381	      0.00000000	      0.00000000	    -64.11111733	     -7.43167761	      9.59859317	     89.64466762	    -13.40574169	     27.10812700	     48.27744145	     32.97434287	      0.00000000	      0.00000000	     87.36413288	     -2.87388709	     15.13674971	     50.62370628	     40.24228056	      0.00000000	      0.00000000
      2.54000000	    -15.51878924	     -4.65379902	    -10.09736053	      0.18865490	      1.06966805	     -0.31478493	      0.00000000	      0.50000000	      0.00000000	      0.25000000	     86.58426602	      3.92272570	      2.66491009	    114.90313195	      2.00543797	     10.83836888	     -2.97127266	      0.00000000	      0.00000000	     42.68566652	    -16.45138214	     -7.10897592	     29.50654397	      0.51498634	    -35.57945413	      1.22282783	      0.00000000	      0.00000000	    -64.20770228	     -7.24149197	      9.81897856	     89.64238116	    -13.29319399	     26.63712365	     48.80073158	     33.36958463	      0.00000000	      0.00000000	     87.30196241	     -3.18691729	     15.10377900	     51.09489022	     40.45621430	      0.00000000	      0.00000000
      2.54500000	    -15.58937657	     -4.78852794	    -10.18620254	      0.18834176	      1.06900836	     -0.31523689	      0.00000000	      0.50000000	      0.00000000	      0.25000000	     87.23534034	      4.03795601	      2.48386258	    114.87520709	      2.00495059	     11.10413051	     -3.06233809	      0.00000000	      0.00000000	     42.68016067	    -16.56837416	     -7.00946462	     29.93643497	      0.52248936	    -35.81500852	      0.94923448	      0.00000000	      0.00000000	    -64.08573333	     -7.03211608	      9.89118619	     89.65085816	    -13.08827747	     26.82811494	     48.67631599	     33.30890554	      0.00000000	      0.00000000	     87.48497102	     -3.64639636	     15.75437187	     50.41353175	     40.47565857	      0.00000000	      0.00000000
      2.55000000	    -15.61951379	     -4.99989242	    -10.28701319	      0.18803066	      1.06837274	     -0.31560226	      0.00000000	      0.50000000	      0.00000000	      0.25000000	     87.78623307	      4.17493242	      2.18034107	    114.77157260	      2.00314183	     11.41646222	     -3.26499890	      0.00000000	      0.00000000	     42.71224954	    -16.79752444	     -6.94224788	     30.49987191	      0.53232319	    -36.15319715	      0.63262593	      0.00000000	      0.00000000	    -64.08415732	     -6.79310425	     10.12003653	     89.65207650	    -12.94219585	     26.56243423	     49.05229315	     33.42475727	      0.00000000	      0.00000000	     87.50508842	     -3.99556280	     16.03971119	     50.47242427	     40.58802751	      0.00000000	      0.00000000
      2.55500000	    -15.58153879	     -5.16701575	    -10.37293725	      0.18754278	      1.06768888	     -0.31590322	      0.00000000	      0.50000000	      0.00000000	      0.25000000	     88.28199156	      4.34822935	      2.04838610	    114.68433582	      2.00161926	     11.67703727	     -3.26804807	      0.00000000	      0.00000000	     42.75671524	    -16.96204959	     -6.78469594	     31.20489962	      0.54462824	    -36.43593603	      0.26653176	      0.00000000	      0.00000000	    -64.16286236	     -6.55986490	     10.28578481	     89.64859129	    -12.92699798	     26.37623908	     49.56598915	     33.67873381	      0.00000000	      0.00000000	     87.54159631	     -4.37960889	     16.45786980	     50.49592377	     40.72439588	      0.00000000	      0.00000000
      2.56000000	    -15.56624502	     -5.32056109	    -10.58105611	      0.18724289	      1.06690333	     -0.31582868	      0.00000000	      0.50000000	      0.00000000	      0.25000000	     88.74082997	      4.60064959	      1.76486896	    114.51194904	      1.99861054	     11.98148397	     -3.58071691	      0.00000000	      0.00000000	     42.85433670	    -17.25087794	     -6.80547600	     32.05521844	      0.55946910	    -36.65219846	     -0.07879814	      0.00000000	      0.00000000	    -64.17322049	     -6.50596433	     10.48528857	     89.64712258	    -12.70710056	     26.00839734	     49.67517905	     34.28233188	      0.00000000	      0.00000000	     87.55778679	     -4.77215767	     16.74432990	     50.63460943	     40.95506324	      0.00000000	      0.00000000
      2.56500000	    -15.58860246	     -5.64841476	    -10.49629536	      0.18665680	      1.06584729	     -0.31629729	      0.00000000	      0.50000000	      0.00000000	      0.25000000	     89.14816344	      4.54742464	      1.32159175	    114.28581832	      1.99466382	     12.44433079	     -3.71467969	      0.00000000	      0.00000000	     43.22909939	    -17.43532904	     -6.22205517	     33.12206351	      0.57808906	    -36.70927031	     -0.45690228	      0.00000000	      0.00000000	    -64.14449313	     -6.00561888	     10.84401674	     89.64613030	    -13.07466740	     26.75661488	     50.59569082	     33.34388733	      0.00000000	      0.00000000	     87.79858587	     -5.38222514	     18.60226722	     49.83432994	     40.68125910	      0.00000000	      0.00000000
